<?xml version="1.0" encoding="UTF-8" standalone="no"?>
<svg width="1800" height="1300" viewBox="0 0 1800 1300" xmlns="http://www.w3.org/2000/svg">
  <defs>
    <style>
      .title { font: 700 28px Arial, sans-serif; fill: #111827; }
      .subtitle { font: 400 15px Arial, sans-serif; fill: #4b5563; }
      .area-title { font: 700 18px Arial, sans-serif; fill: #111827; }
      .area-note { font: 400 12px Arial, sans-serif; fill: #475569; }
      .label { font: 700 14px Arial, sans-serif; fill: #111827; }
      .small { font: 400 12px Arial, sans-serif; fill: #334155; }
      .tiny { font: 400 11px Arial, sans-serif; fill: #475569; }
      .actor { fill: #ffffff; stroke: #475569; stroke-width: 2; rx: 14; ry: 14; }
      .actual-area { fill: #f8fafc; stroke: #0f172a; stroke-width: 2.4; rx: 22; ry: 22; }
      .actual-block { fill: #ffffff; stroke: #334155; stroke-width: 1.8; rx: 12; ry: 12; }
      .experiment-area { fill: #f5f3ff; stroke: #6d28d9; stroke-width: 2.2; rx: 22; ry: 22; }
      .experiment-block { fill: #ffffff; stroke: #7c3aed; stroke-width: 1.8; rx: 12; ry: 12; }
      .mac-area { fill: #ecfeff; stroke: #155e75; stroke-width: 2.6; rx: 24; ry: 24; }
      .mac-block { fill: #ffffff; stroke: #0e7490; stroke-width: 1.8; rx: 12; ry: 12; }
      .safe-block { fill: #f0fdf4; stroke: #166534; stroke-width: 1.8; rx: 12; ry: 12; }
      .critical-block { fill: #fff7ed; stroke: #9a3412; stroke-width: 1.8; rx: 12; ry: 12; }
      .care-area { fill: #fff7ed; stroke: #9a3412; stroke-width: 2.2; rx: 22; ry: 22; }
      .care-block { fill: #ffffff; stroke: #c2410c; stroke-width: 1.8; rx: 12; ry: 12; }
      .rpi-area { fill: #eff6ff; stroke: #1d4ed8; stroke-width: 2.2; rx: 22; ry: 22; }
      .rpi-block { fill: #ffffff; stroke: #2563eb; stroke-width: 1.8; rx: 12; ry: 12; }
      .measure-area { fill: #f8fafc; stroke: #64748b; stroke-width: 2.2; stroke-dasharray: 8 6; rx: 22; ry: 22; }
      .measure-block { fill: #ffffff; stroke: #64748b; stroke-width: 1.8; stroke-dasharray: 6 4; rx: 12; ry: 12; }
      .asset-area { fill: #f9fafb; stroke: #6b7280; stroke-width: 1.8; rx: 16; ry: 16; }
      .legend-area { fill: #ffffff; stroke: #cbd5e1; stroke-width: 1.4; rx: 12; ry: 12; }
      .arrow { fill: none; stroke-width: 2.6; stroke-linecap: round; stroke-linejoin: round; }
      .input-arrow { stroke: #334155; marker-end: url(#arrowhead-input); }
      .op-arrow { stroke: #0e7490; marker-end: url(#arrowhead-op); }
      .exec-arrow { stroke: #166534; marker-end: url(#arrowhead-exec); }
      .ack-arrow { stroke: #475569; stroke-dasharray: 6 4; marker-end: url(#arrowhead-ack); }
      .class2-arrow { stroke: #9a3412; marker-end: url(#arrowhead-class2); }
      .care-arrow { stroke: #c2410c; stroke-dasharray: 7 5; marker-end: url(#arrowhead-care); }
      .manual-arrow { stroke: #7c2d12; marker-end: url(#arrowhead-manual); }
      .llm-arrow { stroke: #0f766e; stroke-dasharray: 5 4; marker-end: url(#arrowhead-llm); }
      .deferral-arrow { stroke: #9a3412; stroke-dasharray: 4 4; marker-end: url(#arrowhead-deferral); }
      .rpi-arrow { stroke: #2563eb; stroke-dasharray: 5 5; marker-end: url(#arrowhead-rpi); }
      .telemetry-arrow { stroke: #1d4ed8; stroke-dasharray: 9 5; marker-end: url(#arrowhead-telemetry); }
      .measure-arrow { stroke: #64748b; stroke-dasharray: 8 5; marker-end: url(#arrowhead-measure); }
      .flow-label { font: 700 10px Arial, sans-serif; fill: #334155; paint-order: stroke; stroke: #ffffff; stroke-width: 3px; stroke-linejoin: round; }
      .legend-label { font: 700 11px Arial, sans-serif; fill: #334155; }
    </style>
    <marker id="arrowhead-input" markerWidth="6" markerHeight="4.5" refX="5.5" refY="2.25" orient="auto">
      <polygon points="0 0, 6 2.25, 0 4.5" fill="#334155"/>
    </marker>
    <marker id="arrowhead-op" markerWidth="6" markerHeight="4.5" refX="5.5" refY="2.25" orient="auto">
      <polygon points="0 0, 6 2.25, 0 4.5" fill="#0e7490"/>
    </marker>
    <marker id="arrowhead-exec" markerWidth="6" markerHeight="4.5" refX="5.5" refY="2.25" orient="auto">
      <polygon points="0 0, 6 2.25, 0 4.5" fill="#166534"/>
    </marker>
    <marker id="arrowhead-ack" markerWidth="6" markerHeight="4.5" refX="5.5" refY="2.25" orient="auto">
      <polygon points="0 0, 6 2.25, 0 4.5" fill="#475569"/>
    </marker>
    <marker id="arrowhead-class2" markerWidth="6" markerHeight="4.5" refX="5.5" refY="2.25" orient="auto">
      <polygon points="0 0, 6 2.25, 0 4.5" fill="#9a3412"/>
    </marker>
    <marker id="arrowhead-care" markerWidth="6" markerHeight="4.5" refX="5.5" refY="2.25" orient="auto">
      <polygon points="0 0, 6 2.25, 0 4.5" fill="#c2410c"/>
    </marker>
    <marker id="arrowhead-manual" markerWidth="6" markerHeight="4.5" refX="5.5" refY="2.25" orient="auto">
      <polygon points="0 0, 6 2.25, 0 4.5" fill="#7c2d12"/>
    </marker>
    <marker id="arrowhead-llm" markerWidth="6" markerHeight="4.5" refX="5.5" refY="2.25" orient="auto">
      <polygon points="0 0, 6 2.25, 0 4.5" fill="#0f766e"/>
    </marker>
    <marker id="arrowhead-deferral" markerWidth="6" markerHeight="4.5" refX="5.5" refY="2.25" orient="auto">
      <polygon points="0 0, 6 2.25, 0 4.5" fill="#9a3412"/>
    </marker>
    <marker id="arrowhead-rpi" markerWidth="6" markerHeight="4.5" refX="5.5" refY="2.25" orient="auto">
      <polygon points="0 0, 6 2.25, 0 4.5" fill="#2563eb"/>
    </marker>
    <marker id="arrowhead-telemetry" markerWidth="6" markerHeight="4.5" refX="5.5" refY="2.25" orient="auto">
      <polygon points="0 0, 6 2.25, 0 4.5" fill="#1d4ed8"/>
    </marker>
    <marker id="arrowhead-measure" markerWidth="6" markerHeight="4.5" refX="5.5" refY="2.25" orient="auto">
      <polygon points="0 0, 6 2.25, 0 4.5" fill="#64748b"/>
    </marker>
  </defs>

  <text x="900" y="42" text-anchor="middle" class="title">Privacy-Aware Edge Smart-Home Architecture with Safe Deferral</text>

  <rect x="40" y="115" width="340" height="86" class="actor"/>
  <text x="210" y="148" text-anchor="middle" class="area-title">User</text>
  <text x="210" y="172" text-anchor="middle" class="small">bounded input, selection,</text>
  <text x="210" y="190" text-anchor="middle" class="small">and accessible feedback</text>

  <rect x="40" y="230" width="340" height="875" class="actual-area"/>
  <text x="210" y="260" text-anchor="middle" class="area-title">Actual Physical Nodes</text>
  <text x="210" y="281" text-anchor="middle" class="area-note">bounded field-side nodes and interfaces</text>

  <rect x="70" y="315" width="280" height="64" class="actual-block"/>
  <text x="210" y="342" text-anchor="middle" class="label">Bounded Button</text>
  <text x="210" y="361" text-anchor="middle" class="label">Input Node</text>

  <rect x="70" y="405" width="280" height="64" class="actual-block"/>
  <text x="210" y="432" text-anchor="middle" class="label">Environmental</text>
  <text x="210" y="451" text-anchor="middle" class="label">Context Node</text>

  <rect x="70" y="495" width="280" height="64" class="actual-block"/>
  <text x="210" y="522" text-anchor="middle" class="label">Doorbell / Visitor</text>
  <text x="210" y="541" text-anchor="middle" class="label">Context Node</text>

  <rect x="70" y="585" width="280" height="64" class="safe-block"/>
  <text x="210" y="612" text-anchor="middle" class="label">Lighting Control</text>
  <text x="210" y="631" text-anchor="middle" class="label">Node</text>

  <rect x="70" y="675" width="280" height="64" class="experiment-block"/>
  <text x="210" y="702" text-anchor="middle" class="label">Gas / Smoke / Fire</text>
  <text x="210" y="721" text-anchor="middle" class="label">Nodes</text>

  <rect x="70" y="765" width="280" height="64" class="experiment-block"/>
  <text x="210" y="792" text-anchor="middle" class="label">Fall-Detection</text>
  <text x="210" y="811" text-anchor="middle" class="label">Node</text>

  <rect x="70" y="855" width="280" height="64" class="experiment-block"/>
  <text x="210" y="882" text-anchor="middle" class="label">Warning Output</text>
  <text x="210" y="901" text-anchor="middle" class="label">Node</text>

  <rect x="70" y="945" width="280" height="64" class="critical-block"/>
  <text x="210" y="972" text-anchor="middle" class="label">Doorlock</text>
  <text x="210" y="991" text-anchor="middle" class="label">Interface Node</text>

  <rect x="430" y="115" width="780" height="650" class="mac-area"/>
  <text x="820" y="146" text-anchor="middle" class="area-title">Mac mini Operational Hub</text>
  <text x="820" y="167" text-anchor="middle" class="area-note">policy, validation, dispatch, caregiver handling, ACK, and audit</text>

  <rect x="465" y="190" width="220" height="72" class="mac-block"/>
  <text x="575" y="219" text-anchor="middle" class="label">MQTT / Context</text>
  <text x="575" y="238" text-anchor="middle" class="label">Intake</text>

  <rect x="465" y="285" width="220" height="72" class="mac-block"/>
  <text x="575" y="314" text-anchor="middle" class="label">State</text>
  <text x="575" y="333" text-anchor="middle" class="label">Aggregation</text>

  <rect x="465" y="380" width="220" height="72" class="mac-block"/>
  <text x="575" y="409" text-anchor="middle" class="label">Local LLM Adapter</text>
  <text x="575" y="428" text-anchor="middle" class="small">Candidate guidance only</text>

  <rect x="720" y="190" width="220" height="72" class="mac-block"/>
  <text x="830" y="219" text-anchor="middle" class="label">Policy Router</text>
  <text x="830" y="238" text-anchor="middle" class="small">Class 0 / 1 / 2</text>

  <rect x="720" y="285" width="220" height="72" class="safe-block"/>
  <text x="830" y="314" text-anchor="middle" class="label">Deterministic</text>
  <text x="830" y="333" text-anchor="middle" class="label">Validator</text>

  <rect x="720" y="380" width="220" height="86" class="critical-block"/>
  <text x="830" y="410" text-anchor="middle" class="label">Class 2</text>
  <text x="830" y="429" text-anchor="middle" class="label">Clarification</text>
  <text x="830" y="447" text-anchor="middle" class="label">Manager</text>

  <rect x="720" y="490" width="220" height="72" class="critical-block"/>
  <text x="830" y="519" text-anchor="middle" class="label">Context-Integrity</text>
  <text x="830" y="538" text-anchor="middle" class="label">Safe Deferral</text>

  <rect x="975" y="190" width="200" height="72" class="safe-block"/>
  <text x="1075" y="219" text-anchor="middle" class="label">Low-Risk</text>
  <text x="1075" y="238" text-anchor="middle" class="label">Dispatcher</text>

  <rect x="975" y="300" width="200" height="92" class="critical-block"/>
  <text x="1075" y="329" text-anchor="middle" class="label">Caregiver</text>
  <text x="1075" y="348" text-anchor="middle" class="label">Notification /</text>
  <text x="1075" y="366" text-anchor="middle" class="label">Confirmation</text>

  <rect x="975" y="430" width="200" height="72" class="mac-block"/>
  <text x="1075" y="459" text-anchor="middle" class="label">Read-Only</text>
  <text x="1075" y="478" text-anchor="middle" class="label">Telemetry Adapter</text>

  <rect x="570" y="610" width="230" height="72" class="mac-block"/>
  <text x="685" y="639" text-anchor="middle" class="label">ACK Handler</text>
  <text x="685" y="658" text-anchor="middle" class="small">closed-loop evidence</text>

  <rect x="835" y="610" width="230" height="72" class="mac-block"/>
  <text x="950" y="639" text-anchor="middle" class="label">Audit Logging</text>
  <text x="950" y="658" text-anchor="middle" class="small">single-writer service</text>

  <text x="820" y="730" text-anchor="middle" class="tiny">LLM output, dashboards, MQTT topics, and payload examples do not create execution authority.</text>

  <rect x="1260" y="115" width="470" height="300" class="care-area"/>
  <text x="1495" y="146" text-anchor="middle" class="area-title">Caregiver / Telegram Path</text>
  <text x="1495" y="167" text-anchor="middle" class="area-note">transport and manual confirmation evidence only</text>

  <rect x="1300" y="205" width="180" height="62" class="care-block"/>
  <text x="1390" y="231" text-anchor="middle" class="label">Telegram</text>
  <text x="1390" y="249" text-anchor="middle" class="label">Bot API</text>

  <rect x="1510" y="205" width="180" height="62" class="care-block"/>
  <text x="1600" y="231" text-anchor="middle" class="label">Caregiver</text>
  <text x="1600" y="249" text-anchor="middle" class="small">manual reviewer</text>

  <rect x="1400" y="315" width="230" height="62" class="care-block"/>
  <text x="1515" y="341" text-anchor="middle" class="label">Response /</text>
  <text x="1515" y="359" text-anchor="middle" class="label">Confirmation Evidence</text>

  <rect x="1260" y="455" width="470" height="520" class="rpi-area"/>
  <text x="1495" y="486" text-anchor="middle" class="area-title">Raspberry Pi Experiment Support</text>
  <text x="1495" y="507" text-anchor="middle" class="area-note">non-authoritative simulation, monitoring, governance, and results</text>

  <rect x="1290" y="535" width="190" height="62" class="rpi-block"/>
  <text x="1385" y="561" text-anchor="middle" class="label">Web Experiment</text>
  <text x="1385" y="579" text-anchor="middle" class="label">Dashboard</text>

  <rect x="1505" y="535" width="190" height="62" class="rpi-block"/>
  <text x="1600" y="561" text-anchor="middle" class="label">Experiment</text>
  <text x="1600" y="579" text-anchor="middle" class="label">Manager</text>

  <rect x="1290" y="620" width="190" height="62" class="rpi-block"/>
  <text x="1385" y="646" text-anchor="middle" class="label">Scenario</text>
  <text x="1385" y="664" text-anchor="middle" class="label">Manager</text>

  <rect x="1505" y="620" width="190" height="62" class="rpi-block"/>
  <text x="1600" y="646" text-anchor="middle" class="label">Virtual Node</text>
  <text x="1600" y="664" text-anchor="middle" class="label">Manager</text>

  <rect x="1290" y="705" width="190" height="74" class="rpi-block"/>
  <text x="1385" y="733" text-anchor="middle" class="label">Virtual Behavior /</text>
  <text x="1385" y="751" text-anchor="middle" class="label">Fault Injection</text>

  <rect x="1505" y="705" width="190" height="74" class="rpi-block"/>
  <text x="1600" y="733" text-anchor="middle" class="label">MQTT / Interface</text>
  <text x="1600" y="751" text-anchor="middle" class="label">Status Manager</text>

  <rect x="1290" y="805" width="190" height="62" class="rpi-block"/>
  <text x="1385" y="831" text-anchor="middle" class="label">Result Store /</text>
  <text x="1385" y="849" text-anchor="middle" class="label">Analysis</text>

  <rect x="1505" y="805" width="190" height="62" class="rpi-block"/>
  <text x="1600" y="831" text-anchor="middle" class="label">MQTT / Payload</text>
  <text x="1600" y="849" text-anchor="middle" class="label">Governance Support</text>

  <text x="1495" y="925" text-anchor="middle" class="tiny">RPi tools may run experiments and observe telemetry,</text>
  <text x="1495" y="941" text-anchor="middle" class="tiny">but must not override routing, validation, dispatch, or caregiver authority.</text>

  <rect x="430" y="840" width="780" height="130" class="measure-area"/>
  <text x="820" y="870" text-anchor="middle" class="area-title">STM32 Timing / Measurement Support</text>
  <text x="820" y="891" text-anchor="middle" class="area-note">out-of-band latency evidence and export; not operational control</text>

  <rect x="470" y="915" width="190" height="34" class="measure-block"/>
  <text x="565" y="936" text-anchor="middle" class="label">Capture Channels</text>

  <rect x="700" y="915" width="240" height="34" class="measure-block"/>
  <text x="820" y="936" text-anchor="middle" class="label">Timestamping Core</text>

  <rect x="980" y="915" width="190" height="34" class="measure-block"/>
  <text x="1075" y="936" text-anchor="middle" class="label">Measurement Export</text>

  <rect x="430" y="1000" width="1300" height="105" class="asset-area"/>
  <text x="1080" y="1032" text-anchor="middle" class="area-title">Canonical Assets / Contracts</text>
  <text x="1080" y="1058" text-anchor="middle" class="small">policies, schemas, MQTT registry, payload contracts, scenario contracts, and required experiment definitions</text>
  <text x="1080" y="1078" text-anchor="middle" class="tiny">repository-governed reference layer; not a live operational override channel</text>

  <path d="M380 437 H405 V226 H465" class="arrow input-arrow"/>
  <text x="398" y="213" text-anchor="middle" class="flow-label">input/context</text>

  <path d="M575 262 V285" class="arrow op-arrow"/>
  <path d="M685 321 H705 V226 H720" class="arrow op-arrow"/>
  <path d="M830 262 V285" class="arrow op-arrow"/>
  <path d="M940 321 H955 V226 H975" class="arrow op-arrow"/>
  <text x="812" y="179" text-anchor="middle" class="flow-label">operational routing</text>

  <path d="M1175 226 H1225 V795 H400 V617 H350" class="arrow exec-arrow"/>
  <text x="1020" y="786" text-anchor="middle" class="flow-label">low-risk dispatch</text>

  <path d="M350 638 H405 V646 H570" class="arrow ack-arrow"/>
  <path d="M800 646 H835" class="arrow ack-arrow"/>
  <text x="492" y="666" text-anchor="middle" class="flow-label">ACK evidence</text>

  <path d="M940 238 H950 V423 H940" class="arrow class2-arrow"/>
  <text x="962" y="416" text-anchor="start" class="flow-label">Class 2 branch</text>

  <path d="M720 336 H700 V526 H720" class="arrow deferral-arrow"/>
  <text x="708" y="506" text-anchor="end" class="flow-label">integrity deferral</text>

  <path d="M940 438 H960 V346 H975" class="arrow class2-arrow"/>
  <path d="M1175 346 H1240 V236 H1300" class="arrow care-arrow"/>
  <path d="M1480 236 H1510" class="arrow care-arrow"/>
  <path d="M1600 267 V291 H1515 V315" class="arrow care-arrow"/>
  <path d="M1400 362 H1175" class="arrow care-arrow"/>
  <text x="1246" y="222" text-anchor="end" class="flow-label">notification</text>
  <text x="1246" y="384" text-anchor="end" class="flow-label">response</text>

  <path d="M1175 376 H1235 V977 H350" class="arrow manual-arrow"/>
  <text x="858" y="965" text-anchor="middle" class="flow-label">manual dispatch</text>
  <path d="M1075 392 V410 H1192 V590 H990 V610" class="arrow care-arrow"/>
  <text x="1128" y="604" text-anchor="middle" class="flow-label">confirmation audit</text>

  <path d="M575 357 V380" class="arrow llm-arrow"/>
  <path d="M685 416 H720" class="arrow llm-arrow"/>
  <text x="641" y="373" text-anchor="middle" class="flow-label">candidate guidance</text>

  <path d="M830 562 V590 H910 V610" class="arrow deferral-arrow"/>
  <text x="858" y="590" text-anchor="middle" class="flow-label">deferral record</text>

  <path d="M1065 646 H1075 V502" class="arrow telemetry-arrow"/>
  <text x="1138" y="535" text-anchor="middle" class="flow-label">audit/ACK view</text>

  <path d="M1600 597 V610 H1385 V620" class="arrow rpi-arrow"/>
  <path d="M1480 651 H1505" class="arrow rpi-arrow"/>
  <path d="M1600 682 V705" class="arrow rpi-arrow"/>
  <path d="M1385 682 V705" class="arrow rpi-arrow"/>
  <path d="M1600 779 V805" class="arrow rpi-arrow"/>
  <path d="M1480 836 H1505" class="arrow rpi-arrow"/>
  <text x="1452" y="612" text-anchor="middle" class="flow-label">orchestration</text>

  <path d="M1290 742 H1250 V178 H575 V190" class="arrow rpi-arrow"/>
  <text x="1205" y="706" text-anchor="end" class="flow-label">virtual input</text>

  <path d="M1175 466 H1218 V566 H1290" class="arrow telemetry-arrow"/>
  <text x="1205" y="586" text-anchor="end" class="flow-label">telemetry view</text>

  <path d="M380 932 H470" class="arrow measure-arrow"/>
  <text x="426" y="923" text-anchor="middle" class="flow-label">signal taps</text>
  <path d="M660 932 H700" class="arrow measure-arrow"/>
  <path d="M940 932 H980" class="arrow measure-arrow"/>
  <text x="824" y="909" text-anchor="middle" class="flow-label">timing capture</text>

  <path d="M1170 932 H1240 V836 H1290" class="arrow measure-arrow"/>
  <text x="1205" y="892" text-anchor="end" class="flow-label">measurement export</text>

  <rect x="430" y="1130" width="1300" height="80" class="legend-area"/>
  <text x="485" y="1160" text-anchor="start" class="legend-label">Legend</text>
  <path d="M560 1155 H615" class="arrow input-arrow"/>
  <text x="625" y="1159" text-anchor="start" class="legend-label">field input/context</text>
  <path d="M800 1155 H855" class="arrow op-arrow"/>
  <text x="865" y="1159" text-anchor="start" class="legend-label">Mac mini operational</text>
  <path d="M1090 1155 H1145" class="arrow care-arrow"/>
  <text x="1155" y="1159" text-anchor="start" class="legend-label">Class 2 / caregiver</text>
  <path d="M1370 1155 H1425" class="arrow manual-arrow"/>
  <text x="1435" y="1159" text-anchor="start" class="legend-label">governed manual dispatch</text>
  <path d="M560 1184 H615" class="arrow ack-arrow"/>
  <text x="625" y="1188" text-anchor="start" class="legend-label">ACK evidence</text>
  <path d="M800 1184 H855" class="arrow rpi-arrow"/>
  <text x="865" y="1188" text-anchor="start" class="legend-label">RPi experiment</text>
  <path d="M1090 1184 H1145" class="arrow measure-arrow"/>
  <text x="1155" y="1188" text-anchor="start" class="legend-label">STM32 measurement</text>
</svg>
